<?xml version="1.0" encoding="UTF-8"?>
<svg xmlns="http://www.w3.org/2000/svg" xmlns:xlink="http://www.w3.org/1999/xlink" width="50px" height="70px" viewBox="0 0 50 70" version="1.1">
<g id="surface1">
<path style=" stroke:none;fill-rule:nonzero;fill:rgb(0%,0%,0%);fill-opacity:1;" d="M 18.480469 30.773438 C 18.480469 32.585938 17.433594 34.054688 16.136719 34.054688 C 14.84375 34.054688 13.792969 32.585938 13.792969 30.773438 C 13.792969 28.960938 14.84375 27.492188 16.136719 27.492188 C 17.433594 27.492188 18.480469 28.960938 18.480469 30.773438 Z M 18.480469 30.773438 "/>
<path style=" stroke:none;fill-rule:nonzero;fill:rgb(0%,0%,0%);fill-opacity:1;" d="M 36.207031 30.773438 C 36.207031 32.585938 35.15625 34.054688 33.863281 34.054688 C 32.566406 34.054688 31.519531 32.585938 31.519531 30.773438 C 31.519531 28.960938 32.566406 27.492188 33.863281 27.492188 C 35.15625 27.492188 36.207031 28.960938 36.207031 30.773438 Z M 36.207031 30.773438 "/>
<path style=" stroke:none;fill-rule:nonzero;fill:rgb(0%,0%,0%);fill-opacity:1;" d="M 48.4375 16.386719 C 48.4375 8.558594 44.097656 2.1875 38.757812 2.1875 C 35.445312 2.1875 32.375 4.707031 30.609375 8.742188 C 28.917969 8.140625 27.039062 7.835938 25 7.835938 C 22.960938 7.835938 21.078125 8.140625 19.386719 8.742188 C 17.625 4.707031 14.554688 2.1875 11.242188 2.1875 C 5.90625 2.1875 1.5625 8.558594 1.5625 16.386719 C 1.5625 21.753906 3.632812 26.582031 6.785156 28.980469 C 6.769531 29.613281 6.789062 30.246094 6.851562 30.871094 L 6.234375 30.703125 L 6.699219 33.824219 C 6.734375 34.058594 7.066406 36.15625 8.082031 38.289062 C 8.265625 38.753906 8.554688 39.261719 8.957031 39.84375 C 9.070312 40.007812 9.199219 40.195312 9.339844 40.371094 L 11.074219 42.59375 C 10.214844 44.023438 8.40625 47.101562 7.46875 49.34375 C 5.136719 54.933594 5.304688 58.535156 8 60.6875 C 8.703125 61.25 9.390625 61.539062 10.0625 61.574219 C 10.339844 63.554688 11.007812 65.089844 12.066406 66.152344 C 13.175781 67.269531 14.683594 67.8125 16.675781 67.8125 C 19.542969 67.8125 21.246094 66.59375 22.226562 64.882812 C 23.121094 65.09375 24.050781 65.210938 25 65.210938 C 25.941406 65.210938 26.867188 65.09375 27.761719 64.882812 C 28.035156 65.363281 28.351562 65.785156 28.71875 66.152344 C 29.828125 67.269531 31.335938 67.8125 33.328125 67.8125 C 37.851562 67.8125 39.484375 64.785156 39.941406 61.578125 C 40.609375 61.539062 41.296875 61.25 42.003906 60.6875 C 44.695312 58.535156 44.863281 54.933594 42.527344 49.34375 C 41.59375 47.097656 39.78125 44.015625 38.921875 42.589844 L 40.660156 40.371094 C 40.800781 40.191406 40.9375 40.003906 41.0625 39.8125 C 41.449219 39.261719 41.734375 38.757812 41.921875 38.289062 C 42.9375 36.15625 43.269531 34.058594 43.304688 33.820312 L 43.769531 30.703125 L 43.152344 30.871094 C 43.207031 30.300781 43.234375 29.667969 43.214844 28.980469 C 46.367188 26.582031 48.4375 21.757812 48.4375 16.386719 M 16.675781 65.695312 C 13.800781 65.695312 11.46875 64.507812 11.472656 59.3125 C 11.46875 54.121094 13.800781 49.910156 16.675781 49.910156 C 19.550781 49.910156 21.878906 54.121094 21.878906 59.3125 C 21.878906 64.507812 19.546875 65.695312 16.675781 65.695312 M 33.328125 65.695312 C 30.453125 65.695312 28.121094 64.507812 28.125 59.3125 C 28.121094 54.121094 30.453125 49.910156 33.328125 49.910156 C 36.199219 49.910156 38.527344 54.121094 38.527344 59.3125 C 38.527344 64.507812 36.199219 65.695312 33.328125 65.695312 M 41.167969 50.382812 C 43.835938 56.765625 42.0625 58.183594 41.210938 58.859375 C 40.859375 59.140625 40.484375 59.347656 40.089844 59.421875 L 40.089844 59.3125 C 40.089844 52.960938 37.058594 47.792969 33.328125 47.792969 C 31.460938 47.792969 29.664062 49.105469 28.398438 51.394531 C 27.210938 53.535156 26.5625 56.347656 26.5625 59.316406 C 26.5625 60.664062 26.707031 61.855469 26.980469 62.898438 C 26.332031 63.011719 25.671875 63.09375 25 63.09375 C 24.324219 63.09375 23.667969 63.011719 23.023438 62.890625 C 23.328125 61.726562 23.4375 60.488281 23.4375 59.3125 C 23.4375 52.960938 20.402344 47.792969 16.671875 47.792969 C 14.808594 47.792969 13.011719 49.105469 11.742188 51.394531 C 10.558594 53.535156 9.90625 56.347656 9.910156 59.3125 C 9.910156 59.351562 9.910156 59.386719 9.910156 59.425781 C 9.515625 59.351562 9.140625 59.140625 8.789062 58.859375 C 7.9375 58.183594 6.160156 56.765625 8.828125 50.386719 C 9.765625 48.140625 11.734375 44.835938 12.464844 43.636719 C 15.515625 46.289062 19.957031 48.890625 24.996094 48.890625 C 30.039062 48.890625 34.480469 46.289062 37.53125 43.636719 C 38.265625 44.835938 40.230469 48.140625 41.167969 50.382812 M 40.832031 28.054688 C 40.75 28.597656 40.644531 29.128906 40.507812 29.644531 L 41.597656 28.148438 C 41.949219 31.949219 40.652344 33.703125 40.652344 33.703125 L 41.773438 33.402344 C 41.773438 33.402344 41.484375 35.332031 40.570312 37.21875 C 40.460938 37.515625 40.230469 37.921875 39.90625 38.390625 C 39.804688 38.542969 39.699219 38.6875 39.589844 38.832031 L 39.585938 38.820312 C 37.398438 41.699219 32.035156 46.417969 25.679688 46.742188 C 28.570312 46.488281 30.222656 44.445312 30.222656 37.269531 C 30.222656 31.203125 26.703125 28.898438 25 28.898438 C 23.296875 28.898438 19.78125 31.203125 19.78125 37.269531 C 19.78125 44.445312 21.433594 46.488281 24.320312 46.742188 C 17.964844 46.417969 12.601562 41.699219 10.414062 38.820312 L 10.414062 38.832031 C 10.304688 38.6875 10.195312 38.542969 10.09375 38.390625 C 9.769531 37.921875 9.539062 37.515625 9.429688 37.21875 C 8.515625 35.332031 8.230469 33.402344 8.230469 33.402344 L 9.347656 33.703125 C 9.347656 33.703125 8.054688 31.949219 8.402344 28.148438 L 9.492188 29.644531 C 9.492188 29.644531 9.316406 29.023438 9.167969 28.054688 C 5.691406 26.6875 3.125 21.988281 3.125 16.386719 C 3.125 9.714844 6.757812 4.304688 11.242188 4.304688 C 14.496094 4.304688 17.296875 7.167969 18.589844 11.285156 C 20.382812 10.425781 22.496094 9.953125 25 9.953125 C 27.5 9.953125 29.617188 10.429688 31.410156 11.285156 C 32.703125 7.167969 35.503906 4.304688 38.757812 4.304688 C 43.238281 4.304688 46.875 9.714844 46.875 16.386719 C 46.875 21.992188 44.304688 26.691406 40.832031 28.054688 "/>
<path style=" stroke:none;fill-rule:nonzero;fill:rgb(0%,0%,0%);fill-opacity:1;" d="M 11.328125 15.226562 C 12.621094 14.214844 14.152344 14.917969 14.152344 14.917969 C 14.152344 14.917969 14.097656 13.855469 12.964844 13.898438 C 14.011719 12.761719 15.472656 13.4375 15.472656 13.4375 L 15.46875 13.449219 C 15.527344 13.390625 15.59375 13.339844 15.652344 13.285156 C 14.871094 10.808594 13.191406 9.089844 11.242188 9.089844 C 8.542969 9.089844 6.359375 12.355469 6.359375 16.390625 C 6.359375 19.316406 7.515625 21.832031 9.179688 22.992188 C 9.226562 22.734375 9.285156 22.480469 9.347656 22.234375 L 10.554688 23.367188 C 10.554688 23.367188 10.1875 21.914062 10.523438 20.925781 L 11.042969 21.445312 C 11.042969 21.445312 10.101562 18.117188 10.957031 16.722656 C 11.4375 18.738281 12.003906 18.707031 12.003906 18.707031 C 12.003906 18.707031 11.308594 17.199219 11.851562 16.566406 C 12.402344 17.703125 12.859375 16.960938 12.839844 16.621094 C 12.808594 16.167969 12.949219 15.527344 11.328125 15.226562 "/>
<path style=" stroke:none;fill-rule:nonzero;fill:rgb(0%,0%,0%);fill-opacity:1;" d="M 38.757812 9.089844 C 36.804688 9.089844 35.128906 10.808594 34.347656 13.285156 C 34.40625 13.34375 34.472656 13.390625 34.535156 13.449219 L 34.53125 13.4375 C 34.53125 13.4375 35.988281 12.761719 37.035156 13.898438 C 35.902344 13.855469 35.847656 14.917969 35.847656 14.917969 C 35.847656 14.917969 37.378906 14.214844 38.671875 15.226562 C 37.054688 15.527344 37.191406 16.167969 37.160156 16.621094 C 37.136719 16.960938 37.597656 17.699219 38.148438 16.5625 C 38.691406 17.195312 37.996094 18.707031 37.996094 18.707031 C 37.996094 18.707031 38.566406 18.734375 39.042969 16.71875 C 39.902344 18.117188 38.957031 21.441406 38.957031 21.441406 L 39.476562 20.921875 C 39.8125 21.914062 39.449219 23.363281 39.449219 23.363281 L 40.652344 22.230469 C 40.71875 22.480469 40.773438 22.734375 40.820312 22.988281 C 42.484375 21.828125 43.640625 19.3125 43.640625 16.386719 C 43.640625 12.355469 41.453125 9.089844 38.757812 9.089844 "/>
<path style=" stroke:none;fill-rule:nonzero;fill:rgb(0%,0%,0%);fill-opacity:1;" d="M 16.675781 54.074219 C 14.644531 54.074219 12.996094 57.046875 12.996094 60.71875 C 12.996094 64.390625 14.644531 65.230469 16.675781 65.230469 C 18.707031 65.230469 20.351562 64.390625 20.351562 60.71875 C 20.351562 57.050781 18.703125 54.074219 16.675781 54.074219 "/>
<path style=" stroke:none;fill-rule:nonzero;fill:rgb(0%,0%,0%);fill-opacity:1;" d="M 33.328125 54.074219 C 31.292969 54.074219 29.648438 57.050781 29.648438 60.71875 C 29.648438 64.390625 31.296875 65.230469 33.328125 65.230469 C 35.359375 65.230469 37.003906 64.390625 37.003906 60.71875 C 37.003906 57.050781 35.359375 54.074219 33.328125 54.074219 "/>
</g>
</svg>
